<svg width="5" height="9" viewBox="0 0 5 9" fill="none" xmlns="http://www.w3.org/2000/svg">
<path fill-rule="evenodd" clip-rule="evenodd" d="M0.222864 3.99346C0.080164 4.12781 0 4.31002 0 4.5C0 4.68998 0.080164 4.87219 0.222864 5.00654L3.71898 8.29729C3.86078 8.42809 4.0517 8.50093 4.25023 8.49999C4.44877 8.49905 4.63889 8.42439 4.77928 8.29225C4.91967 8.16011 4.99899 7.98115 4.99999 7.79428C5.00099 7.6074 4.9236 7.4277 4.78464 7.29423L1.81602 4.5L4.78464 1.70577C4.9236 1.5723 5.00099 1.3926 4.99999 1.20572C4.99899 1.01885 4.91967 0.839893 4.77928 0.70775C4.63889 0.575607 4.44877 0.500953 4.25023 0.500009C4.0517 0.499065 3.86078 0.571908 3.71898 0.70271L0.222864 3.99346Z" fill="#7E839A"/>
</svg>
