<svg width="114" height="169" viewBox="0 0 114 169" fill="none" xmlns="http://www.w3.org/2000/svg">
<path d="M109 0H5C2.23858 0 0 2.23858 0 5V164C0 166.761 2.23858 169 5 169H109C111.761 169 114 166.761 114 164V5C114 2.23858 111.761 0 109 0Z" fill="#C4C4C4"/>
<path fill-rule="evenodd" clip-rule="evenodd" d="M45.108 94.782H57.646C62.014 94.782 64.754 91.936 64.754 87.906V73.876C64.754 69.846 62.026 67 57.646 67H45.108C40.726 67 38 69.846 38 73.876V87.906C38 91.936 40.726 94.782 45.108 94.782Z" stroke="white" stroke-width="1.68616" stroke-linecap="round" stroke-linejoin="round"/>
<path d="M65 86.359L72.33 89.355C73.722 89.923 75.246 88.901 75.246 87.397V74.119C75.246 72.615 73.722 71.591 72.33 72.159L65 75.155" stroke="white" stroke-width="1.68616" stroke-linecap="round" stroke-linejoin="round"/>
</svg>
